<svg width="60" height="60" viewBox="0 0 60 60" fill="none" xmlns="http://www.w3.org/2000/svg">
<path d="M29.9847 0.070755C46.5051 0.070755 59.8981 13.4706 59.8981 30C59.8981 46.5294 46.5051 59.9292 29.9844 59.9292C13.4635 59.9292 0.0707397 46.5294 0.0707397 30C0.0707397 13.4706 13.4635 0.070755 29.9847 0.070755Z" fill="#9A8D8D"/>
<path d="M17.4178 28.5815C19.7027 28.5815 21.4497 26.8342 21.4497 24.5496C21.4497 22.2651 19.7027 20.5177 17.4178 20.5177C15.133 20.5177 13.386 22.2648 13.386 24.5496C13.386 26.8344 15.1333 28.5815 17.4178 28.5815ZM19.727 33.5459C20.4684 32.8879 21.2793 32.3126 22.1454 31.8303C20.9641 31.2028 19.4168 30.7381 17.4178 30.7381C11.2356 30.7381 9.35406 35.173 9.35406 35.173V37.4578H16.7638L16.7935 37.3876C16.8793 37.1859 17.689 35.3638 19.727 33.5459V33.5459ZM42.5822 30.7381C40.6424 30.7381 39.1265 31.1748 37.9588 31.7742C38.8629 32.2678 39.7081 32.8622 40.4785 33.5459C42.5165 35.3635 43.326 37.1859 43.4117 37.3876L43.4414 37.4578H50.646V35.173C50.6457 35.173 48.7642 30.7381 42.5822 30.7381V30.7381ZM42.5822 28.5815C44.867 28.5815 46.6141 26.8342 46.6141 24.5496C46.6141 22.2651 44.867 20.5177 42.5822 20.5177C40.2974 20.5177 38.5503 22.2648 38.5503 24.5496C38.5503 26.8344 40.2974 28.5815 42.5822 28.5815ZM30.103 29.49C30.5271 29.4905 30.9502 29.4499 31.3664 29.3689C31.5694 29.3292 31.768 29.2797 31.9625 29.2214C32.254 29.134 32.535 29.0261 32.8047 28.8993C33.161 28.7319 33.4998 28.5297 33.8162 28.2957C34.4456 27.8301 34.9762 27.2442 35.3771 26.5718C35.6329 26.1434 35.8346 25.6849 35.9774 25.2068C36.0661 24.9109 36.1329 24.6089 36.1772 24.3031C36.2225 23.9926 36.2457 23.6737 36.2457 23.3474C36.2457 23.021 36.2222 22.7018 36.1772 22.3916C36.1323 22.086 36.0655 21.784 35.9774 21.4879C35.7781 20.8211 35.4648 20.1939 35.0513 19.6342C34.7032 19.1635 34.2869 18.7472 33.8162 18.3991C33.4998 18.165 33.161 17.9628 32.8047 17.7954C32.5323 17.6673 32.2508 17.5597 31.9625 17.4733C31.7663 17.4145 31.5674 17.3653 31.3664 17.3258C30.9502 17.2448 30.5271 17.2042 30.103 17.2047C26.6222 17.2047 23.9601 19.8665 23.9601 23.3474C23.9601 26.8282 26.6222 29.49 30.103 29.49V29.49ZM41.2158 37.0755C41.1072 36.9102 40.994 36.7481 40.8761 36.5893C40.5833 36.1946 40.265 35.8196 39.9232 35.4665C39.6157 35.1485 39.2905 34.8481 38.9491 34.5668C38.4236 34.1344 37.862 33.7478 37.2705 33.4112C36.9502 33.2291 36.622 33.0614 36.2867 32.9086C36.2765 32.9041 36.2672 32.899 36.2573 32.8944C34.6463 32.164 32.6208 31.6559 30.1027 31.6559C27.5844 31.6559 25.5589 32.164 23.9482 32.8944C23.8927 32.9196 23.841 32.9468 23.7863 32.9726C23.4365 33.1371 23.0946 33.3182 22.7618 33.5151C22.2339 33.8266 21.7308 34.1782 21.2567 34.5668C20.9152 34.8481 20.5899 35.1485 20.2823 35.4665C19.9411 35.82 19.6229 36.195 19.3296 36.5893C19.2017 36.7619 19.0888 36.9249 18.99 37.0755C18.8983 37.215 18.8202 37.3424 18.752 37.4578L18.7347 37.4864C18.6736 37.5906 18.6149 37.6962 18.5587 37.8031C18.4667 37.9789 18.4243 38.0791 18.4243 38.0791V41.3881H41.7818V38.0791C41.7818 38.0791 41.6799 37.8408 41.4541 37.4578C41.3775 37.3286 41.2981 37.2011 41.2158 37.0755V37.0755Z" fill="white"/>
</svg>
